<mxfile host="app.diagrams.net" modified="2022-06-27T07:29:12.527Z" agent="5.0 (X11)" etag="cn_LAp2V1LEj_4AX-kC_" version="20.0.3" type="github">
  <diagram id="v760DRj5wuVyRDYj6Pmf" name="Page-1">
    <mxGraphModel dx="462" dy="500" grid="1" gridSize="10" guides="1" tooltips="1" connect="1" arrows="1" fold="1" page="1" pageScale="1" pageWidth="850" pageHeight="1100" math="0" shadow="0">
      <root>
        <mxCell id="0" />
        <mxCell id="1" parent="0" />
        <mxCell id="6yYNlxBjcoMtwoBK_832-6" value="&lt;&lt; Java Class &gt;&gt;&#xa;hust.soict.hedspi.aims.order::Order" style="swimlane;fontStyle=1;align=center;verticalAlign=top;childLayout=stackLayout;horizontal=1;startSize=40;horizontalStack=0;resizeParent=1;resizeParentMax=0;resizeLast=0;collapsible=1;marginBottom=0;" parent="1" vertex="1">
          <mxGeometry x="20" y="35" width="230" height="280" as="geometry" />
        </mxCell>
        <mxCell id="6yYNlxBjcoMtwoBK_832-7" value="- itemsOrdered: ArrayList&#xa;- dateOrdered: MyDate&#xa;- nbOrderes: int&#xa;- id: int&#xa;- MAX_NUMBER_ORDER: int&#xa;- MAX_LIMITED_ORDERS: int &#xa;&#xa;" style="text;strokeColor=none;fillColor=none;align=left;verticalAlign=top;spacingLeft=4;spacingRight=4;overflow=hidden;rotatable=0;points=[[0,0.5],[1,0.5]];portConstraint=eastwest;" parent="6yYNlxBjcoMtwoBK_832-6" vertex="1">
          <mxGeometry y="40" width="230" height="100" as="geometry" />
        </mxCell>
        <mxCell id="6yYNlxBjcoMtwoBK_832-8" value="" style="line;strokeWidth=1;fillColor=none;align=left;verticalAlign=middle;spacingTop=-1;spacingLeft=3;spacingRight=3;rotatable=0;labelPosition=right;points=[];portConstraint=eastwest;" parent="6yYNlxBjcoMtwoBK_832-6" vertex="1">
          <mxGeometry y="140" width="230" height="8" as="geometry" />
        </mxCell>
        <mxCell id="6yYNlxBjcoMtwoBK_832-9" value="+ Order()&#xa;+ addMedia(Media): void&#xa;+ removeMedia(Media): void &#xa;+ removeMedia(id): void &#xa;+ totalCost(): float&#xa;+ getALuckyItem(): Media&#xa;+ printOrders(): void &#xa;+ historyOrders(): void &#xa;&#xa;" style="text;strokeColor=none;fillColor=none;align=left;verticalAlign=top;spacingLeft=4;spacingRight=4;overflow=hidden;rotatable=0;points=[[0,0.5],[1,0.5]];portConstraint=eastwest;" parent="6yYNlxBjcoMtwoBK_832-6" vertex="1">
          <mxGeometry y="148" width="230" height="132" as="geometry" />
        </mxCell>
        <mxCell id="XqhugPaKbIoTn08K-KNa-5" value="&lt;&lt; Java Class &gt;&gt;&#xa;hust.soict.hedspi.aims.media::Book" style="swimlane;fontStyle=1;align=center;verticalAlign=top;childLayout=stackLayout;horizontal=1;startSize=40;horizontalStack=0;resizeParent=1;resizeParentMax=0;resizeLast=0;collapsible=1;marginBottom=0;" vertex="1" parent="1">
          <mxGeometry x="570" y="50" width="230" height="220" as="geometry" />
        </mxCell>
        <mxCell id="XqhugPaKbIoTn08K-KNa-6" value="- authors: ArrayList" style="text;strokeColor=none;fillColor=none;align=left;verticalAlign=top;spacingLeft=4;spacingRight=4;overflow=hidden;rotatable=0;points=[[0,0.5],[1,0.5]];portConstraint=eastwest;" vertex="1" parent="XqhugPaKbIoTn08K-KNa-5">
          <mxGeometry y="40" width="230" height="30" as="geometry" />
        </mxCell>
        <mxCell id="XqhugPaKbIoTn08K-KNa-7" value="" style="line;strokeWidth=1;fillColor=none;align=left;verticalAlign=middle;spacingTop=-1;spacingLeft=3;spacingRight=3;rotatable=0;labelPosition=right;points=[];portConstraint=eastwest;" vertex="1" parent="XqhugPaKbIoTn08K-KNa-5">
          <mxGeometry y="70" width="230" height="8" as="geometry" />
        </mxCell>
        <mxCell id="XqhugPaKbIoTn08K-KNa-8" value="+ Book()&#xa;+ Book(String)&#xa;+ Book(String, String)&#xa;+ Book(String, String, float)&#xa;+ Book(String, String, float, ArrayList)&#xa;+ getAuthors(): ArrayList&#xa;+ setAuthors(String): void &#xa;+ addAuthors(String): void&#xa;+ removeAuthor(String): void&#xa;" style="text;strokeColor=none;fillColor=none;align=left;verticalAlign=top;spacingLeft=4;spacingRight=4;overflow=hidden;rotatable=0;points=[[0,0.5],[1,0.5]];portConstraint=eastwest;" vertex="1" parent="XqhugPaKbIoTn08K-KNa-5">
          <mxGeometry y="78" width="230" height="142" as="geometry" />
        </mxCell>
        <mxCell id="XqhugPaKbIoTn08K-KNa-9" value="&lt;&lt; Java Abstract Class &gt;&gt;&#xa;hust.soict.hedspi.aims.media::Media" style="swimlane;fontStyle=1;align=center;verticalAlign=top;childLayout=stackLayout;horizontal=1;startSize=40;horizontalStack=0;resizeParent=1;resizeParentMax=0;resizeLast=0;collapsible=1;marginBottom=0;" vertex="1" parent="1">
          <mxGeometry x="305" y="50" width="240" height="260" as="geometry" />
        </mxCell>
        <mxCell id="XqhugPaKbIoTn08K-KNa-10" value="# id: int&#xa;# title: String&#xa;# category: String# cost: float&#xa;" style="text;strokeColor=none;fillColor=none;align=left;verticalAlign=top;spacingLeft=4;spacingRight=4;overflow=hidden;rotatable=0;points=[[0,0.5],[1,0.5]];portConstraint=eastwest;" vertex="1" parent="XqhugPaKbIoTn08K-KNa-9">
          <mxGeometry y="40" width="240" height="60" as="geometry" />
        </mxCell>
        <mxCell id="XqhugPaKbIoTn08K-KNa-11" value="" style="line;strokeWidth=1;fillColor=none;align=left;verticalAlign=middle;spacingTop=-1;spacingLeft=3;spacingRight=3;rotatable=0;labelPosition=right;points=[];portConstraint=eastwest;" vertex="1" parent="XqhugPaKbIoTn08K-KNa-9">
          <mxGeometry y="100" width="240" height="8" as="geometry" />
        </mxCell>
        <mxCell id="XqhugPaKbIoTn08K-KNa-12" value="+ Media()&#xa;+ Media(String)&#xa;+ Media(String, String)&#xa;+ Media(String, String, float)&#xa;+ getTitle(): String&#xa;+ getCategory(): String&#xa;+ getCost(): float&#xa;+ setCost(float): void&#xa;+ getId(): int&#xa;+ setId(int): void&#xa;&#xa;" style="text;strokeColor=none;fillColor=none;align=left;verticalAlign=top;spacingLeft=4;spacingRight=4;overflow=hidden;rotatable=0;points=[[0,0.5],[1,0.5]];portConstraint=eastwest;" vertex="1" parent="XqhugPaKbIoTn08K-KNa-9">
          <mxGeometry y="108" width="240" height="152" as="geometry" />
        </mxCell>
        <mxCell id="XqhugPaKbIoTn08K-KNa-13" value="&lt;&lt; Java Class &gt;&gt;&#xa;hust.soict.hedspi.aims.media::Disc" style="swimlane;fontStyle=1;align=center;verticalAlign=top;childLayout=stackLayout;horizontal=1;startSize=40;horizontalStack=0;resizeParent=1;resizeParentMax=0;resizeLast=0;collapsible=1;marginBottom=0;" vertex="1" parent="1">
          <mxGeometry x="40" y="430" width="230" height="290" as="geometry" />
        </mxCell>
        <mxCell id="XqhugPaKbIoTn08K-KNa-14" value="# length: int&#xa;# director: String&#xa;" style="text;strokeColor=none;fillColor=none;align=left;verticalAlign=top;spacingLeft=4;spacingRight=4;overflow=hidden;rotatable=0;points=[[0,0.5],[1,0.5]];portConstraint=eastwest;" vertex="1" parent="XqhugPaKbIoTn08K-KNa-13">
          <mxGeometry y="40" width="230" height="40" as="geometry" />
        </mxCell>
        <mxCell id="XqhugPaKbIoTn08K-KNa-15" value="" style="line;strokeWidth=1;fillColor=none;align=left;verticalAlign=middle;spacingTop=-1;spacingLeft=3;spacingRight=3;rotatable=0;labelPosition=right;points=[];portConstraint=eastwest;" vertex="1" parent="XqhugPaKbIoTn08K-KNa-13">
          <mxGeometry y="80" width="230" height="8" as="geometry" />
        </mxCell>
        <mxCell id="XqhugPaKbIoTn08K-KNa-16" value="+ Disc()&#xa;+ getLength(): int&#xa;+ getDirector(): String&#xa;+ setTitle(String): void&#xa;+ setLength(int): void&#xa;+ setCategory(String): void&#xa;+ setDirector(String): void&#xa;+ Disc(int, String)&#xa;+ Disc(String, String)&#xa;+ Disc(String, String, String)&#xa;+ DIsc(String, String, int)&#xa;+ Disc(String, String, String, int)&#xa;+ Disc(String, String, float, String, int)&#xa;" style="text;strokeColor=none;fillColor=none;align=left;verticalAlign=top;spacingLeft=4;spacingRight=4;overflow=hidden;rotatable=0;points=[[0,0.5],[1,0.5]];portConstraint=eastwest;" vertex="1" parent="XqhugPaKbIoTn08K-KNa-13">
          <mxGeometry y="88" width="230" height="202" as="geometry" />
        </mxCell>
        <mxCell id="XqhugPaKbIoTn08K-KNa-17" value="&lt;&lt; Java Class &gt;&gt;&#xa;hust.soict.hedspi.aims.media::CompactDisc" style="swimlane;fontStyle=1;align=center;verticalAlign=top;childLayout=stackLayout;horizontal=1;startSize=40;horizontalStack=0;resizeParent=1;resizeParentMax=0;resizeLast=0;collapsible=1;marginBottom=0;" vertex="1" parent="1">
          <mxGeometry x="370" y="450" width="270" height="260" as="geometry" />
        </mxCell>
        <mxCell id="XqhugPaKbIoTn08K-KNa-18" value="- artist: String&#xa;- tracks: ArrayList&#xa;" style="text;strokeColor=none;fillColor=none;align=left;verticalAlign=top;spacingLeft=4;spacingRight=4;overflow=hidden;rotatable=0;points=[[0,0.5],[1,0.5]];portConstraint=eastwest;" vertex="1" parent="XqhugPaKbIoTn08K-KNa-17">
          <mxGeometry y="40" width="270" height="50" as="geometry" />
        </mxCell>
        <mxCell id="XqhugPaKbIoTn08K-KNa-19" value="" style="line;strokeWidth=1;fillColor=none;align=left;verticalAlign=middle;spacingTop=-1;spacingLeft=3;spacingRight=3;rotatable=0;labelPosition=right;points=[];portConstraint=eastwest;" vertex="1" parent="XqhugPaKbIoTn08K-KNa-17">
          <mxGeometry y="90" width="270" height="8" as="geometry" />
        </mxCell>
        <mxCell id="XqhugPaKbIoTn08K-KNa-20" value="+ CompactDisc()&#xa;+ getArtist(): String&#xa;+ CompactDisc(String)&#xa;+ CompactDisc(String, String, float, String)&#xa;+ CompactDisc(String, ArrayList)&#xa;+ CompactDisc(String, ArrayList, int)&#xa;+ addTrack(Track): void&#xa;+ removeTrack(Track): voidÂ &#xa;+ getLength(): int&#xa;+ play(): void &#xa;" style="text;strokeColor=none;fillColor=none;align=left;verticalAlign=top;spacingLeft=4;spacingRight=4;overflow=hidden;rotatable=0;points=[[0,0.5],[1,0.5]];portConstraint=eastwest;" vertex="1" parent="XqhugPaKbIoTn08K-KNa-17">
          <mxGeometry y="98" width="270" height="162" as="geometry" />
        </mxCell>
      </root>
    </mxGraphModel>
  </diagram>
</mxfile>
